# xmcd
#
# Track frame offsets: 
#        150
#        13795
#        27574
#        41502
#        54357
#        67393
#        82085
#        94773
#        102348
#        113504
#        125581
#        139413
#        151112
#        163253
#        174431
#        185851
#        199773
#        224377
#        236591
#        254238
#        265032
#        280125
#        293415
#        303871
#        315652
#        325615
#        339789
#
# Disc length: 4704 seconds
#
# Revision: 0
# Processed by: cddbd v1.5.2PL0 Copyright (c) Steve Scherf et al.
# Submitted via: ExactAudioCopyFreeDBPlugin 1.0
#
DISCID=8d125e1b
DTITLE=Various Artist - VA - Really the Blues - Disc 26
DYEAR=1900
DGENRE=50s
TTITLE0=Amos Milburn - Bad Bad Whiskey
TTITLE1=Tampa Red - When Things Go Wrong with You
TTITLE2=Laverne Baker - Take Out Some Time
TTITLE3=Iry Lejune - It Happened to Me
TTITLE4=Memphis Slim - Sitting and Thinking
TTITLE5=Esther Phillips - Lost in a Dream
TTITLE6=Django Reinhardt - St. Louis Blues
TTITLE7=Bing Crosby and Al Jolson - My Blue Heaven
TTITLE8=Eddie Miller - Release Me
TTITLE9=Willie Nix with Willie Johnson - Try Me One More Time
TTITLE10=Walter Horton - Now Tell Me Baby
TTITLE11=Lonnie Johnson - Me and My Crazy Self
TTITLE12=Robert Junior Lockwood - My Daily Wish
TTITLE13=Hank Williams - Weary Blues from Waitin'
TTITLE14=H Bomb Ferguson - Slowly Goin' Crazy
TTITLE15=Ira Tucker with the Dixie Hummingbirds - I'll Never Forget
TTITLE16=Hampton Hawes - Bud's Blues
TTITLE17=Dinah Washington - I'm a Fool to Want You
TTITLE18=Howlin' Wolf - Cryin' at Daybreak
TTITLE19=Doc Pomus with Bill Doggett - Too Much Boogie
TTITLE20=Bill Russo and Shelby Davis - Gloomy Sunday
TTITLE21=Frank Sinatra - I'm a Fool to Want You
TTITLE22=Fats Domino - Don't You Lie to Me
TTITLE23=Alex Moore - Lillie Mae Boogie
TTITLE24=Gene O'Quin - Too Hot to Handle
TTITLE25=Billie Holiday - I Love You Porgy
TTITLE26=Harmonica Frank - She Done Moved
EXTD=
EXTT0=
EXTT1=
EXTT2=
EXTT3=
EXTT4=
EXTT5=
EXTT6=
EXTT7=
EXTT8=
EXTT9=
EXTT10=
EXTT11=
EXTT12=
EXTT13=
EXTT14=
EXTT15=
EXTT16=
EXTT17=
EXTT18=
EXTT19=
EXTT20=
EXTT21=
EXTT22=
EXTT23=
EXTT24=
EXTT25=
EXTT26=
PLAYORDER=
